<?xml version="1.0" encoding="UTF-8"?>
<svg id="Layer_1" data-name="Layer 1" xmlns="http://www.w3.org/2000/svg" xmlns:xlink="http://www.w3.org/1999/xlink" viewBox="0 0 1375.77 1174.86">
  <defs>
    <style>
      .cls-1 {
        fill: url(#linear-gradient-2);
      }

      .cls-2 {
        fill: url(#linear-gradient);
      }

      .cls-3 {
        fill: #262262;
        font-family: Prompt-Bold, Prompt;
        font-size: 190px;
        font-weight: 700;
      }

      .cls-4 {
        letter-spacing: -.11em;
      }

      .cls-5 {
        letter-spacing: -.01em;
      }

      .cls-6 {
        fill: #f7941d;
      }
    </style>
    <linearGradient id="linear-gradient" x1="18.76" y1="79.49" x2="864.28" y2="567.65" gradientUnits="userSpaceOnUse">
      <stop offset="0" stop-color="#2bb673"/>
      <stop offset="1" stop-color="#27aae1" stop-opacity="0"/>
    </linearGradient>
    <linearGradient id="linear-gradient-2" x1="527.67" y1="672.64" x2="1228.52" y2="-28.21" gradientUnits="userSpaceOnUse">
      <stop offset="0" stop-color="#27aae1" stop-opacity=".5"/>
      <stop offset="1" stop-color="#2bb673"/>
    </linearGradient>
  </defs>
  <path class="cls-2" d="M675,784.62c-22.7-11.14-45-23.08-67.2-35.22-22.15-12.22-44.15-24.73-65.94-37.63-43.61-25.74-86.46-52.82-128.52-81.21-21.02-14.21-41.79-28.81-62.36-43.72-20.57-14.91-40.81-30.33-60.82-46.08-40-31.53-78.75-64.87-115.45-100.75-18.35-17.94-36.14-36.57-53.17-56.02-17.01-19.47-33.25-39.79-48.27-61.23-7.48-10.74-14.66-21.77-21.43-33.13-6.78-11.35-13.13-23.04-18.88-35.14-5.75-12.09-11.01-24.54-15.41-37.44l-1.64-4.84-1.52-4.9c-1.05-3.25-1.9-6.59-2.85-9.89-1.71-6.67-3.35-13.39-4.56-20.25l-.48-2.56-.41-2.58-.81-5.17c-.42-3.48-.94-6.94-1.22-10.45-.16-1.75-.35-3.5-.47-5.26l-.32-5.29c-.13-1.76-.13-3.54-.18-5.31l-.06-2.66-.03-1.34.04-1.49.18-5.96c.09-1.99.36-4,.55-6l.33-3,.52-3.01.54-3c.19-1,.35-2,.62-2.99,1.8-7.99,4.7-15.78,8.31-23.16,7.34-14.76,18.06-27.23,29.83-36.99l4.46-3.61c1.51-1.13,3.04-2.22,4.57-3.33l2.3-1.64,2.34-1.52c1.56-1,3.12-2.03,4.69-3.01l4.76-2.76c.79-.45,1.59-.93,2.39-1.36l2.41-1.26,4.82-2.5,4.86-2.28c12.99-6.04,26.23-10.49,39.48-14.07,13.26-3.58,26.55-6.24,39.82-8.25C187.39,1.36,213.85-.05,240.12,0c26.27.16,52.35,1.92,78.22,4.85,12.93,1.51,25.81,3.32,38.63,5.39,12.82,2.1,25.58,4.48,38.28,7.12,50.77,10.67,100.56,25.56,148.76,44.75,24.1,9.6,47.79,20.28,70.92,32.18,23.14,11.88,45.71,24.97,67.47,39.43,10.91,7.18,21.55,14.81,31.98,22.75,5.24,3.93,10.34,8.06,15.46,12.17l7.56,6.31c2.53,2.09,4.96,4.32,7.44,6.47,9.83,8.73,19.42,17.79,28.56,27.33,9.14,9.53,17.87,19.5,26.15,29.87,16.56,20.72,30.98,43.36,42.64,67.42,11.49,24.15,20.06,49.81,24.79,76.17,2.33,13.18,3.76,26.49,4.3,39.81l.16,4.99c.05,1.66.12,3.33.08,4.99l-.09,9.97-.49,9.95-.13,2.48-.23,2.48-.46,4.95c-1.32,13.17-3.3,26.25-6.26,39.06-.64,3.22-1.48,6.4-2.29,9.58-.84,3.17-1.55,6.37-2.53,9.5l-2.78,9.41c-.97,3.12-2.07,6.19-3.1,9.29l-1.58,4.63-1.73,4.57c-1.17,3.04-2.28,6.1-3.49,9.11-2.54,5.98-4.92,12.02-7.71,17.87-1.37,2.94-2.67,5.9-4.09,8.8l-4.33,8.67c-.73,1.44-1.42,2.9-2.19,4.32l-2.3,4.26-4.62,8.49c-12.74,22.38-26.95,43.76-42.41,64.07-30.85,40.69-66.16,77.41-103.74,111.19ZM675,784.62c16.76-18.93,33.19-38.08,48.65-57.93,15.52-19.8,30.16-40.21,43.67-61.24,13.44-21.07,25.81-42.73,36.45-65.1,5.13-11.26,10.25-22.5,14.5-34.05,2.29-5.71,4.15-11.57,6.19-17.35.95-2.91,1.81-5.85,2.72-8.77l1.35-4.38,1.19-4.42c3.33-11.75,5.85-23.66,7.86-35.6,2.05-11.94,3.15-23.97,3.66-35.96l.16-4.5.08-2.25v-2.25s-.04-8.98-.04-8.98l-.38-8.95c-.03-1.49-.18-2.98-.3-4.46l-.37-4.46c-1.09-11.87-2.95-23.63-5.6-35.2-5.43-23.11-13.94-45.4-25.08-66.36-5.61-10.47-11.85-20.61-18.63-30.41-6.8-9.79-14.06-19.29-21.91-28.35-7.81-9.08-16.08-17.8-24.68-26.22-8.61-8.41-17.67-16.41-26.96-24.13-2.35-1.91-4.64-3.87-7.03-5.73l-7.14-5.61c-4.84-3.65-9.65-7.33-14.62-10.83-9.87-7.07-19.97-13.85-30.3-20.29-41.3-25.86-85.75-47.07-131.62-64.48-45.92-17.35-93.36-30.94-141.48-40.6-12.03-2.39-24.1-4.59-36.21-6.5-12.11-1.88-24.24-3.51-36.39-4.86-24.29-2.71-48.65-4.28-72.87-4.4-24.2-.12-48.29,1.2-71.69,4.62-11.69,1.7-23.2,3.95-34.33,6.89-11.13,2.92-21.89,6.55-31.85,11.05l-3.73,1.69-3.59,1.83-1.8.91c-.59.31-1.15.65-1.73.97l-3.45,1.95-3.29,2.08-1.65,1.03-1.56,1.1-3.11,2.2-2.92,2.32c-3.77,3.16-7.35,6.43-10.24,10.02-.37.44-.8.86-1.12,1.32l-1.02,1.37c-.66.92-1.44,1.78-1.99,2.75l-1.83,2.81c-.51.98-1.04,1.95-1.58,2.91-.59.94-.93,1.99-1.41,2.98l-.69,1.49c-.22.5-.37,1.03-.56,1.55-.35,1.04-.79,2.05-1.09,3.11-.28,1.07-.57,2.13-.88,3.2-.18.52-.25,1.08-.36,1.63l-.32,1.65-.34,1.65-.19,1.7c-.11,1.14-.32,2.25-.38,3.42l-.15,3.5-.05.88v1.03s.03,2.07.03,2.07c.02,1.38,0,2.77.08,4.15l.17,4.17c.07,1.39.2,2.78.3,4.17.16,2.78.55,5.58.82,8.37l.59,4.19.29,2.1.36,2.09c.87,5.59,2.15,11.17,3.46,16.74.76,2.78,1.4,5.57,2.24,8.34l1.21,4.16,1.32,4.15c3.5,11.07,7.84,22.02,12.7,32.82,9.76,21.6,21.78,42.57,35.14,62.86,13.39,20.29,28.15,39.9,43.76,58.95,15.61,19.06,32.12,37.52,49.19,55.54,34.19,36.02,70.72,70.15,108.4,103.1,18.85,16.48,38.1,32.52,57.53,48.41,19.42,15.88,39.17,31.41,59.08,46.75,39.81,30.7,80.49,60.39,121.72,89.38,20.64,14.46,41.4,28.78,62.34,42.86,20.92,14.11,41.99,28.02,63.28,41.64Z"/>
  <polygon class="cls-6" points="648 397.62 702 397.62 702 442.62 747 442.62 747 496.62 702 496.62 702 541.62 648 541.62 648 496.62 603 496.62 603 442.62 648 442.62 648 397.62"/>
  <path class="cls-1" d="M675,784.62c21.29-13.63,42.36-27.53,63.28-41.64,20.94-14.08,41.7-28.4,62.34-42.86,41.23-28.99,81.91-58.68,121.72-89.38,19.91-15.34,39.65-30.87,59.08-46.75,19.42-15.88,38.68-31.93,57.53-48.41,37.68-32.95,74.21-67.08,108.4-103.1,17.07-18.02,33.58-36.49,49.19-55.54,15.61-19.05,30.37-38.67,43.76-58.95,13.36-20.28,25.39-41.25,35.14-62.86,4.86-10.8,9.2-21.75,12.7-32.82l1.32-4.15,1.21-4.16c.85-2.77,1.49-5.56,2.24-8.34,1.31-5.58,2.58-11.15,3.46-16.75l.36-2.09.29-2.1.59-4.19c.27-2.79.66-5.58.82-8.37.1-1.39.23-2.79.3-4.18l.17-4.17c.09-1.39.06-2.77.08-4.15l.02-2.07v-1.03s-.03-.88-.03-.88c-.19-9.44-2.3-18.07-6.36-25.88-4.05-7.8-10.1-14.91-17.77-21.18-7.63-6.29-16.89-11.6-26.83-16.09-4.97-2.26-10.19-4.24-15.51-6.09-5.31-1.86-10.79-3.49-16.35-4.95-5.55-1.49-11.23-2.76-16.96-3.9-5.74-1.12-11.51-2.17-17.38-2.98-5.84-.87-11.75-1.56-17.67-2.2-5.94-.57-11.89-1.09-17.88-1.44-11.97-.74-24.04-1.04-36.15-.98-24.21.11-48.58,1.68-72.87,4.4-24.3,2.68-48.53,6.52-72.59,11.35-24.07,4.79-47.95,10.67-71.57,17.42-23.62,6.75-46.95,14.52-69.92,23.17-45.87,17.43-90.31,38.63-131.63,64.47-20.64,12.93-40.48,27.03-59.1,42.47-18.63,15.41-36.02,32.19-51.65,50.35-15.58,18.19-29.35,37.81-40.49,58.79-11.19,20.94-19.71,43.23-25.11,66.35-2.67,11.56-4.55,23.33-5.61,35.2-1.07,11.87-1.3,23.85-.85,35.85.94,24,4.97,48.04,11.52,71.56,3.24,11.77,7.08,23.42,11.43,34.93,4.3,11.53,9.32,22.81,14.57,34.03,1.35,2.79,2.62,5.61,4.04,8.37l4.2,8.3c1.43,2.76,2.92,5.48,4.38,8.22l2.21,4.1,2.3,4.06c6.07,10.87,12.57,21.52,19.28,32.06,13.54,21.01,28.13,41.46,43.69,61.23,15.48,19.84,31.83,39.06,48.64,57.94ZM675,784.62c-18.85-16.84-36.98-34.55-54.39-53.01-4.4-4.58-8.59-9.34-12.88-14.03-2.15-2.34-4.2-4.77-6.3-7.15-2.08-2.4-4.21-4.77-6.25-7.21-4.09-4.87-8.22-9.71-12.16-14.72-1.98-2.49-4.01-4.95-5.96-7.48l-5.83-7.59c-7.69-10.18-15.22-20.53-22.22-31.26l-2.66-4-2.58-4.06c-1.71-2.72-3.45-5.41-5.13-8.15l-4.96-8.26c-1.67-2.74-3.2-5.58-4.81-8.37-12.68-22.41-23.52-46.04-32.08-70.69-8.53-24.65-14.38-50.46-16.96-76.83-2.57-26.36-1.54-53.28,3.17-79.63,4.71-26.36,13.29-52.03,24.83-76.15,11.58-24.12,26.07-46.7,42.6-67.45,16.51-20.78,35.02-39.77,54.71-57.19,19.73-17.4,40.67-33.25,62.44-47.7,21.78-14.43,44.34-27.54,67.48-39.41,23.13-11.9,46.82-22.59,70.91-32.19,48.21-19.16,98-34.08,148.77-44.74C1005.54,6.82,1057.34.35,1109.88,0c13.14-.05,26.32.31,39.53,1.15,13.21.84,26.47,2.15,39.75,4.18,6.63.97,13.28,2.2,19.91,3.54,6.64,1.36,13.28,2.89,19.9,4.71,6.63,1.79,13.25,3.8,19.84,6.14,6.59,2.33,13.16,4.9,19.65,7.93,12.96,6.03,25.8,13.4,37.6,23.27,5.89,4.92,11.5,10.44,16.58,16.62,5.07,6.18,9.59,13.03,13.26,20.38,3.68,7.35,6.48,15.19,8.31,23.16,1.84,7.98,2.7,16.06,2.75,23.96l.03,1.49-.03,1.34-.06,2.66c-.05,1.77-.06,3.55-.18,5.31l-.32,5.29c-.12,1.76-.31,3.51-.47,5.26-.28,3.51-.8,6.97-1.22,10.45l-.81,5.17-.41,2.58-.48,2.56c-1.21,6.86-2.85,13.57-4.56,20.25-.95,3.3-1.8,6.64-2.85,9.89l-1.52,4.9-1.64,4.84c-4.4,12.91-9.65,25.35-15.41,37.44-5.75,12.1-12.1,23.79-18.88,35.14-6.77,11.36-13.94,22.38-21.43,33.13-15.03,21.44-31.26,41.77-48.27,61.23-17.03,19.46-34.82,38.08-53.17,56.02-36.7,35.88-75.46,69.23-115.45,100.75-20.01,15.75-40.24,31.16-60.82,46.08-20.58,14.91-41.34,29.52-62.36,43.72-42.06,28.38-84.91,55.47-128.52,81.21-21.78,12.9-43.78,25.42-65.94,37.63-22.2,12.14-44.5,24.08-67.2,35.22Z"/>
  <text class="cls-3" transform="translate(0 1099.62)"><tspan x="0" y="0">S</tspan><tspan class="cls-5" x="108.11" y="0">m</tspan><tspan x="271.32" y="0">art </tspan><tspan class="cls-4" x="600.2" y="0">T</tspan><tspan x="690.83" y="0">elemed</tspan></text>
</svg>